# xmcd
#
# Track frame offsets: 
#        150
#        13079
#        25660
#        32170
#        52298
#        57996
#        65150
#        73635
#        85505
#        91537
#        97368
#        102133
#        106305
#        115201
#        120216
#        127064
#        133730
#        135291
#        143406
#        149376
#        154196
#        159964
#        169180
#        178145
#        181141
#
# Disc length: 2773 seconds
#
# Revision: 0
# Processed by: cddbd v1.5.2PL0 Copyright (c) Steve Scherf et al.
# Submitted via: ExactAudioCopy v0.95b4
#
DISCID=570ad319
DTITLE=Александр Братецкий - Практическое руководство по основам игры 
DTITLE=на губной гармонике (часть2)
DYEAR=2006
DGENRE=Harmonica
TTITLE0=Empty Bottle Blues
TTITLE1=Блокировка языком - общие сведения
TTITLE2=Упражнение для развития понимания блокировки
TTITLE3=Упражнение для развития блокировки в движении
TTITLE4=Примеры фраз с блокировкой
TTITLE5=Практический пример для блокировки (Dm, harp in C, 3-rd positi
TTITLE5=on)
TTITLE6=Артикуляция - общие объяснения
TTITLE7=Примеры фраз с артикуляцией
TTITLE8=Практический пример для артикуляции (G, harp in C, 3-rd positi
TTITLE8=on)
TTITLE9=Практический пример для артикуляции - минус
TTITLE10=Предыхания - увеличение и уменьшение громкости
TTITLE11=Фразы с увеличением и уменьшением громкости
TTITLE12=Предыхания - круговое дыхание через инструмент
TTITLE13=Фразы с круговым дыханием
TTITLE14=Практический пример с предыханиями (G, harp in C, 2-nd positi
TTITLE14=on)
TTITLE15=Практический пример с предыханиями - минус
TTITLE16=Общая часть
TTITLE17=Диафрагмальное вибрато - объяснение
TTITLE18=Примеры фраз с диафрагмальным вибрато
TTITLE19=Горловое вибрато - объяснения
TTITLE20=Примеры фраз с горловым вибрато
TTITLE21=Практический пример с примененим вибрато (G, harp in C, 2-nd 
TTITLE21=position)
TTITLE22=Практический пример с примененим вибрато - минус
TTITLE23=Заключение
TTITLE24=One Chilly Morning
EXTD=
EXTT0=
EXTT1=
EXTT2=
EXTT3=
EXTT4=
EXTT5=
EXTT6=
EXTT7=
EXTT8=
EXTT9=
EXTT10=
EXTT11=
EXTT12=
EXTT13=
EXTT14=
EXTT15=
EXTT16=
EXTT17=
EXTT18=
EXTT19=
EXTT20=
EXTT21=
EXTT22=
EXTT23=
EXTT24=
PLAYORDER=
